<?xml version="1.0" encoding="UTF-8"?>
<svg width="870px" height="758px" viewBox="0 0 870 758" version="1.1" xmlns="http://www.w3.org/2000/svg" xmlns:xlink="http://www.w3.org/1999/xlink">
    <!-- Generator: Sketch 55 (78076) - https://sketchapp.com -->
    <title>real-estate-law-1</title>
    <desc>Created with Sketch.</desc>
    <defs>
        <linearGradient x1="50%" y1="100%" x2="50%" y2="0%" id="linearGradient-1">
            <stop stop-color="#808080" stop-opacity="0.25" offset="0%"></stop>
            <stop stop-color="#808080" stop-opacity="0.12" offset="54%"></stop>
            <stop stop-color="#808080" stop-opacity="0.1" offset="100%"></stop>
        </linearGradient>
        <linearGradient x1="50.2513966%" y1="99.9955107%" x2="50.2513966%" y2="-0.00673400673%" id="linearGradient-2">
            <stop stop-color="#808080" stop-opacity="0.25" offset="0%"></stop>
            <stop stop-color="#808080" stop-opacity="0.12" offset="54%"></stop>
            <stop stop-color="#808080" stop-opacity="0.1" offset="100%"></stop>
        </linearGradient>
        <linearGradient x1="50.056263%" y1="100.065176%" x2="50.056263%" y2="0.00874714788%" id="linearGradient-3">
            <stop stop-color="#808080" stop-opacity="0.25" offset="0%"></stop>
            <stop stop-color="#808080" stop-opacity="0.12" offset="54%"></stop>
            <stop stop-color="#808080" stop-opacity="0.1" offset="100%"></stop>
        </linearGradient>
        <linearGradient x1="50.056263%" y1="100.065176%" x2="50.056263%" y2="0.00874714788%" id="linearGradient-4">
            <stop stop-color="#808080" stop-opacity="0.25" offset="0%"></stop>
            <stop stop-color="#808080" stop-opacity="0.12" offset="54%"></stop>
            <stop stop-color="#808080" stop-opacity="0.1" offset="100%"></stop>
        </linearGradient>
        <linearGradient x1="50.0735294%" y1="100.005349%" x2="50.0735294%" y2="0%" id="linearGradient-5">
            <stop stop-color="#808080" stop-opacity="0.25" offset="0%"></stop>
            <stop stop-color="#808080" stop-opacity="0.12" offset="54%"></stop>
            <stop stop-color="#808080" stop-opacity="0.1" offset="100%"></stop>
        </linearGradient>
        <linearGradient x1="50.0343053%" y1="100.008576%" x2="50.0343053%" y2="-0.0600343053%" id="linearGradient-6">
            <stop stop-color="#808080" stop-opacity="0.25" offset="0%"></stop>
            <stop stop-color="#808080" stop-opacity="0.12" offset="54%"></stop>
            <stop stop-color="#808080" stop-opacity="0.1" offset="100%"></stop>
        </linearGradient>
        <linearGradient x1="50.0436469%" y1="100.009699%" x2="50.0436469%" y2="-0.0193986421%" id="linearGradient-7">
            <stop stop-color="#808080" stop-opacity="0.25" offset="0%"></stop>
            <stop stop-color="#808080" stop-opacity="0.12" offset="54%"></stop>
            <stop stop-color="#808080" stop-opacity="0.1" offset="100%"></stop>
        </linearGradient>
        <linearGradient x1="50.0533463%" y1="100.009699%" x2="50.0533463%" y2="-0.0193986421%" id="linearGradient-8">
            <stop stop-color="#808080" stop-opacity="0.25" offset="0%"></stop>
            <stop stop-color="#808080" stop-opacity="0.12" offset="54%"></stop>
            <stop stop-color="#808080" stop-opacity="0.1" offset="100%"></stop>
        </linearGradient>
        <linearGradient x1="50.0198413%" y1="99.9767981%" x2="50.0198413%" y2="-0.0290023202%" id="linearGradient-9">
            <stop stop-color="#808080" stop-opacity="0.25" offset="0%"></stop>
            <stop stop-color="#808080" stop-opacity="0.12" offset="54%"></stop>
            <stop stop-color="#808080" stop-opacity="0.1" offset="100%"></stop>
        </linearGradient>
        <linearGradient x1="49.96%" y1="99.84%" x2="49.96%" y2="-0.16%" id="linearGradient-10">
            <stop stop-color="#808080" stop-opacity="0.25" offset="0%"></stop>
            <stop stop-color="#808080" stop-opacity="0.12" offset="54%"></stop>
            <stop stop-color="#808080" stop-opacity="0.1" offset="100%"></stop>
        </linearGradient>
        <linearGradient x1="49.9902025%" y1="99.96%" x2="49.9902025%" y2="-0.04%" id="linearGradient-11">
            <stop stop-color="#808080" stop-opacity="0.25" offset="0%"></stop>
            <stop stop-color="#808080" stop-opacity="0.12" offset="54%"></stop>
            <stop stop-color="#808080" stop-opacity="0.1" offset="100%"></stop>
        </linearGradient>
        <linearGradient x1="50.0198438%" y1="100.032431%" x2="50.0198438%" y2="0.0213564739%" id="linearGradient-12">
            <stop stop-color="#808080" stop-opacity="0.25" offset="0%"></stop>
            <stop stop-color="#808080" stop-opacity="0.12" offset="54%"></stop>
            <stop stop-color="#808080" stop-opacity="0.1" offset="100%"></stop>
        </linearGradient>
        <linearGradient x1="50.0198438%" y1="100.032431%" x2="50.0198438%" y2="0.0213564739%" id="linearGradient-13">
            <stop stop-color="#808080" stop-opacity="0.25" offset="0%"></stop>
            <stop stop-color="#808080" stop-opacity="0.12" offset="54%"></stop>
            <stop stop-color="#808080" stop-opacity="0.1" offset="100%"></stop>
        </linearGradient>
        <linearGradient x1="50%" y1="99.9853944%" x2="50%" y2="0.00486854917%" id="linearGradient-14">
            <stop stop-color="#808080" stop-opacity="0.25" offset="0%"></stop>
            <stop stop-color="#808080" stop-opacity="0.12" offset="54%"></stop>
            <stop stop-color="#808080" stop-opacity="0.1" offset="100%"></stop>
        </linearGradient>
        <linearGradient x1="49.9389852%" y1="100.038849%" x2="49.9389852%" y2="-0.025862469%" id="linearGradient-15">
            <stop stop-color="#808080" stop-opacity="0.25" offset="0%"></stop>
            <stop stop-color="#808080" stop-opacity="0.12" offset="54%"></stop>
            <stop stop-color="#808080" stop-opacity="0.1" offset="100%"></stop>
        </linearGradient>
        <linearGradient x1="49.9389852%" y1="100.038849%" x2="49.9389852%" y2="-0.025862469%" id="linearGradient-16">
            <stop stop-color="#808080" stop-opacity="0.25" offset="0%"></stop>
            <stop stop-color="#808080" stop-opacity="0.12" offset="54%"></stop>
            <stop stop-color="#808080" stop-opacity="0.1" offset="100%"></stop>
        </linearGradient>
        <linearGradient x1="49.5212766%" y1="99.9535963%" x2="49.5212766%" y2="-0.0232018561%" id="linearGradient-17">
            <stop stop-color="#808080" stop-opacity="0.25" offset="0%"></stop>
            <stop stop-color="#808080" stop-opacity="0.12" offset="54%"></stop>
            <stop stop-color="#808080" stop-opacity="0.1" offset="100%"></stop>
        </linearGradient>
        <linearGradient x1="49.9448124%" y1="100%" x2="49.9448124%" y2="0%" id="linearGradient-18">
            <stop stop-color="#808080" stop-opacity="0.25" offset="0%"></stop>
            <stop stop-color="#808080" stop-opacity="0.12" offset="54%"></stop>
            <stop stop-color="#808080" stop-opacity="0.1" offset="100%"></stop>
        </linearGradient>
        <linearGradient x1="50%" y1="99.8977505%" x2="50%" y2="-0.081799591%" id="linearGradient-19">
            <stop stop-color="#808080" stop-opacity="0.25" offset="0%"></stop>
            <stop stop-color="#808080" stop-opacity="0.12" offset="54%"></stop>
            <stop stop-color="#808080" stop-opacity="0.1" offset="100%"></stop>
        </linearGradient>
        <linearGradient x1="49.8125%" y1="99.75%" x2="49.8125%" y2="-0.25%" id="linearGradient-20">
            <stop stop-color="#808080" stop-opacity="0.25" offset="0%"></stop>
            <stop stop-color="#808080" stop-opacity="0.12" offset="54%"></stop>
            <stop stop-color="#808080" stop-opacity="0.1" offset="100%"></stop>
        </linearGradient>
        <linearGradient x1="49.9375%" y1="99.75%" x2="49.9375%" y2="-0.25%" id="linearGradient-21">
            <stop stop-color="#808080" stop-opacity="0.25" offset="0%"></stop>
            <stop stop-color="#808080" stop-opacity="0.12" offset="54%"></stop>
            <stop stop-color="#808080" stop-opacity="0.1" offset="100%"></stop>
        </linearGradient>
        <linearGradient x1="-0.00582750583%" y1="50.0429553%" x2="99.9708625%" y2="50.0429553%" id="linearGradient-22">
            <stop stop-color="#808080" stop-opacity="0.25" offset="0%"></stop>
            <stop stop-color="#808080" stop-opacity="0.12" offset="54%"></stop>
            <stop stop-color="#808080" stop-opacity="0.1" offset="100%"></stop>
        </linearGradient>
        <linearGradient x1="49.9328174%" y1="99.9346057%" x2="49.9328174%" y2="-0.0582775777%" id="linearGradient-23">
            <stop stop-color="#808080" stop-opacity="0.25" offset="0%"></stop>
            <stop stop-color="#808080" stop-opacity="0.12" offset="54%"></stop>
            <stop stop-color="#808080" stop-opacity="0.1" offset="100%"></stop>
        </linearGradient>
        <linearGradient x1="49.9328174%" y1="99.9346057%" x2="49.9328174%" y2="-0.0582775777%" id="linearGradient-24">
            <stop stop-color="#808080" stop-opacity="0.25" offset="0%"></stop>
            <stop stop-color="#808080" stop-opacity="0.12" offset="54%"></stop>
            <stop stop-color="#808080" stop-opacity="0.1" offset="100%"></stop>
        </linearGradient>
        <linearGradient x1="49.9346667%" y1="100%" x2="49.9346667%" y2="-0.0053561864%" id="linearGradient-25">
            <stop stop-color="#808080" stop-opacity="0.25" offset="0%"></stop>
            <stop stop-color="#808080" stop-opacity="0.12" offset="54%"></stop>
            <stop stop-color="#808080" stop-opacity="0.1" offset="100%"></stop>
        </linearGradient>
        <linearGradient x1="49.8906845%" y1="100.035536%" x2="49.8906845%" y2="-0.00665776453%" id="linearGradient-26">
            <stop stop-color="#808080" stop-opacity="0.25" offset="0%"></stop>
            <stop stop-color="#808080" stop-opacity="0.12" offset="54%"></stop>
            <stop stop-color="#808080" stop-opacity="0.1" offset="100%"></stop>
        </linearGradient>
        <linearGradient x1="49.8906845%" y1="100.035536%" x2="49.8906845%" y2="-0.00665776453%" id="linearGradient-27">
            <stop stop-color="#808080" stop-opacity="0.25" offset="0%"></stop>
            <stop stop-color="#808080" stop-opacity="0.12" offset="54%"></stop>
            <stop stop-color="#808080" stop-opacity="0.1" offset="100%"></stop>
        </linearGradient>
        <linearGradient x1="50.3529412%" y1="99.9744735%" x2="50.3529412%" y2="-0.0319081047%" id="linearGradient-28">
            <stop stop-color="#808080" stop-opacity="0.25" offset="0%"></stop>
            <stop stop-color="#808080" stop-opacity="0.12" offset="54%"></stop>
            <stop stop-color="#808080" stop-opacity="0.1" offset="100%"></stop>
        </linearGradient>
    </defs>
    <g id="Page-1" stroke="none" stroke-width="1" fill="none" fill-rule="evenodd">
        <g id="real-estate-law-1">
            <polygon id="Path" fill="#262262" fill-rule="nonzero" points="705 247 705 189 749 189 749 299.1"></polygon>
            <circle id="Oval" fill="url(#linearGradient-1)" fill-rule="nonzero" cx="805" cy="55" r="55"></circle>
            <circle id="Oval" fill="#CE7D00" fill-rule="nonzero" cx="805" cy="55" r="44"></circle>
            <path d="M325,305.1 C354.4,271.5 351,220.4 317.4,191 C314.5,188.5 311.5,186.2 308.3,184.1 C313.3,176.4 316,167.3 316,158.1 C316,132 295.3,110.8 269.7,110.8 C248.7,110.8 230.9,125.2 225.3,144.9 C213.1,123.9 190.6,110.9 166.3,110.8 C128.2,110.8 97.3,142.4 97.3,181.3 C97.3,189.6 98.7,197.8 101.5,205.6 C100.1,205.5 98.7,205.4 97.3,205.4 C66.8,205.4 42,230.7 42,262 C42,263.9 42.1,265.8 42.3,267.7 C16.9,279.1 0.6,304.4 0.7,332.3 C0.7,371.1 31.5,402.6 69.4,402.6 C73.4,402.6 77.4,402.2 81.3,401.5 C81.1,403.8 81,406.2 81,408.6 C81,452.2 115.5,487.5 158.1,487.5 C173.8,487.5 189.2,482.6 202,473.5 C212.3,482.5 225.6,487.5 239.3,487.5 C271.1,487.5 296.9,461.1 296.9,428.6 C296.9,427.2 296.8,425.8 296.7,424.4 L296.9,424.4 C331,424.4 358.6,396.2 358.6,361.3 C358.7,337.7 345.8,316.1 325,305.1 Z" id="aa86aca2-1def-4b5e-bdbf-3429bf39090e" fill="#4DB6AC" fill-rule="nonzero"></path>
            <rect id="Rectangle" fill="url(#linearGradient-2)" fill-rule="nonzero" x="185.4" y="215.1" width="17.9" height="445.5"></rect>
            <rect id="Rectangle" fill="#795548" fill-rule="nonzero" x="190.5" y="221.3" width="9" height="439.2"></rect>
            <rect id="Rectangle" fill="#795548" fill-rule="nonzero" transform="translate(229.967430, 313.884360) rotate(-47.200574) translate(-229.967430, -313.884360) " x="175.570149" y="309.384585" width="108.794563" height="8.99955021"></rect>
            <rect id="Rectangle" fill="#795548" fill-rule="nonzero" transform="translate(154.715480, 394.017650) rotate(-53.400547) translate(-154.715480, -394.017650) " x="150.21561" y="346.269028" width="8.99974026" height="95.4972438"></rect>
            <g id="b1e29bf6-85c6-472a-ba69-b630e8d8f49d" transform="translate(190.000000, 181.000000)" fill="url(#linearGradient-4)" fill-rule="nonzero">
                <path d="M32,174 C19.9,161.1 13.2,144.1 13.1,126.5 C13.1,101.1 26.9,78.8 47.7,66.2 C43,59.4 40.5,51.3 40.5,43 C40.5,19.7 60,0.8 84.1,0.8 C104,0.8 120.7,13.6 126,31.2 C138.1,12.2 159.1,0.7 181.7,0.8 C217.6,0.8 246.7,28.9 246.7,63.6 C246.7,71 245.3,78.4 242.7,85.3 C244,85.2 245.3,85.1 246.7,85.1 C275.5,85.1 298.9,107.7 298.9,135.5 C298.9,137.2 298.8,138.9 298.6,140.6 C321.7,150.2 337.8,172.4 337.8,198.1 C337.8,232.7 308.8,260.7 273,260.7 C269.2,260.7 265.5,260.3 261.8,259.7 C262,261.8 262.1,263.9 262.1,266 C262.1,304.8 229.5,336.3 189.3,336.3 C174.6,336.3 160.2,332 147.9,323.8 C138,331.9 125.5,336.4 112.7,336.3 C82.7,336.3 58.3,312.8 58.3,283.8 C58.3,282.5 58.4,281.3 58.5,280.1 L58.3,280.1 C26.2,280.1 0.1,254.9 0.1,223.9 C0.3,202.2 13.2,183.3 32,174 Z" id="Path"></path>
            </g>
            <path d="M227.9,354.8 C216.3,342.5 209.9,326.2 209.9,309.3 C209.9,284.9 223.1,263.6 243,251.6 C238.5,245.1 236.1,237.3 236.1,229.4 C236.1,207.1 254.8,189 277.9,189 C296.9,189 312.9,201.3 318,218.1 C329.6,199.9 349.7,188.9 371.2,189.1 C405.6,189.1 433.5,216 433.5,249.2 C433.5,256.3 432.2,263.3 429.7,270 C431,269.9 432.2,269.8 433.5,269.8 C461.1,269.8 483.5,291.4 483.5,318.1 C483.5,319.7 483.4,321.4 483.3,323 C505.4,332.2 520.8,353.4 520.8,378.1 C520.8,411.2 493,438.1 458.7,438.1 C455.1,438.1 451.5,437.8 448,437.1 C448.2,439.1 448.3,441.1 448.3,443.2 C448.3,480.4 417.1,510.5 378.7,510.5 C364.6,510.5 350.8,506.4 339.1,498.5 C329.6,506.3 317.7,510.5 305.4,510.5 C276.7,510.5 253.4,488 253.4,460.2 C253.4,459 253.5,457.8 253.6,456.6 L253.4,456.6 C222.6,456.6 197.7,432.5 197.7,402.8 C197.6,381.8 209.9,363.7 227.9,354.8 Z" id="da8ae254-7852-462b-b033-1b79dc847a6a" fill="#5ACCBE" fill-rule="nonzero"></path>
            <path d="M346,284.4 L346,658.3" id="d827a518-3361-4086-b50f-c6b47e6818cd"></path>
            <rect id="Rectangle" fill="url(#linearGradient-5)" fill-rule="nonzero" x="335.4" y="284.4" width="20.4" height="373.9"></rect>
            <rect id="Rectangle" fill="#795548" fill-rule="nonzero" x="340.3" y="284.4" width="11.3" height="373.9"></rect>
            <path d="M347.1,396.4 L280.3,328.3" id="_x34_a2b3956-f53f-4918-93e5-f7b78a79ae92"></path>
            <rect id="Rectangle" fill="#795548" fill-rule="nonzero" transform="translate(313.693475, 362.284730) rotate(-44.428722) translate(-313.693475, -362.284730) " x="308.043648" y="314.586189" width="11.2996543" height="95.3970812"></rect>
            <path d="M347.1,454.9 L416.3,406.4" id="_x31_00a92bc-a3f1-4f9a-a93f-0d91ae55d71b"></path>
            <rect id="Rectangle" fill="#795548" fill-rule="nonzero" transform="translate(381.717180, 430.679110) rotate(-35.056794) translate(-381.717180, -430.679110) " x="339.416306" y="425.028993" width="84.6017478" height="11.3002335"></rect>
            <polygon id="Path" fill="#FFFFFF" fill-rule="nonzero" points="549.5 139 287.5 333.6 287.5 716.2 813.1 716.2 813.1 347.5"></polygon>
            <circle id="Oval" fill="url(#linearGradient-6)" fill-rule="nonzero" cx="550" cy="314.6" r="58.3"></circle>
            <rect id="Rectangle" fill="url(#linearGradient-7)" fill-rule="nonzero" x="337.5" y="427.1" width="103.1" height="103.1"></rect>
            <rect id="Rectangle" fill="url(#linearGradient-8)" fill-rule="nonzero" x="657.3" y="427.1" width="103.1" height="103.1"></rect>
            <polygon id="Path" fill="#262262" fill-rule="nonzero" points="237.6 415 228 361 550.6 109.3 870 361 860.3 415 550.5 170.8"></polygon>
            <rect id="Rectangle" fill="url(#linearGradient-9)" fill-rule="nonzero" x="486.5" y="543.8" width="126" height="172.4"></rect>
            <rect id="Rectangle" fill="#262262" fill-rule="nonzero" x="490.1" y="547.4" width="118.8" height="168.8"></rect>
            <rect id="Rectangle" fill="#262262" fill-rule="nonzero" x="342.2" y="430.7" width="95.8" height="33.9"></rect>
            <rect id="Rectangle" fill="#262262" fill-rule="nonzero" opacity="0.2" x="342.2" y="464.6" width="95.8" height="62"></rect>
            <rect id="Rectangle" fill="#262262" fill-rule="nonzero" x="661" y="430.7" width="95.8" height="33.9"></rect>
            <rect id="Rectangle" fill="#262262" fill-rule="nonzero" opacity="0.2" x="661" y="464.6" width="95.8" height="62"></rect>
            <path d="M549.5,367.2 C578.8,367.2 602.6,343.4 602.6,314.1 C602.6,314.1 602.6,314.1 602.6,314 L496.4,314 C496.4,343.3 520.1,367.2 549.5,367.2 C549.5,367.2 549.5,367.2 549.5,367.2 Z" id="Path" fill="#262262" fill-rule="nonzero"></path>
            <path d="M549.5,366.7 C578.8,366.7 602.6,342.9 602.6,313.6 L602.6,313.6 L496.4,313.6 C496.4,342.9 520.2,366.7 549.5,366.7 L549.5,366.7 Z" id="Path" fill="#000000" fill-rule="nonzero" opacity="0.2"></path>
            <path d="M549.5,260.9 C520.2,260.9 496.4,284.7 496.4,314 L602.7,314 C602.6,284.7 578.8,260.9 549.5,260.9 Z" id="Path" fill="#262262" fill-rule="nonzero" opacity="0.2"></path>
            <path d="M549.5,260.9 C520.2,260.9 496.4,284.7 496.4,314 L602.7,314 C602.6,284.7 578.8,260.9 549.5,260.9 Z" id="Path" fill="#262262" fill-rule="nonzero" opacity="0.2"></path>
            <circle id="Oval" fill="url(#linearGradient-10)" fill-rule="nonzero" cx="581.3" cy="631.3" r="12.5"></circle>
            <circle id="Oval" fill="#263238" fill-rule="nonzero" cx="581.3" cy="631.3" r="9.4"></circle>
            <rect id="Rectangle" fill="url(#linearGradient-11)" fill-rule="nonzero" x="470.9" y="691.7" width="153.1" height="50"></rect>
            <rect id="Rectangle" fill="#FFFFFF" fill-rule="nonzero" x="474" y="695.8" width="146.9" height="42.7"></rect>
            <g id="_x30_6ed4a51-c0d7-4f18-ace3-f8895d5abf4f" transform="translate(168.000000, 480.000000)" fill="url(#linearGradient-13)" fill-rule="nonzero">
                <path d="M159.5,96.4 C173.9,79.9 172.2,54.8 155.7,40.3 C154.3,39.1 152.8,38 151.3,36.9 C153.8,33.1 155.1,28.6 155.1,24.1 C155.4,11.6 145.5,1.2 133,0.9 C122.6,0.6 113.3,7.5 110.6,17.6 C104.6,7.3 93.5,0.9 81.6,0.9 C62.9,0.9 47.7,16.4 47.7,35.5 C47.7,39.6 48.4,43.7 49.8,47.5 C49.1,47.5 48.4,47.4 47.7,47.4 C32.7,47.4 20.5,59.8 20.5,75.2 C20.5,76.2 20.5,77.1 20.6,78 C8.1,83.6 0.1,96 0.2,109.7 C0.2,128.8 15.3,144.2 34,144.2 C36,144.2 37.9,144 39.8,143.7 C39.7,144.9 39.6,146 39.6,147.2 C39.6,168.6 56.6,185.9 77.5,185.9 C85.2,185.9 92.8,183.5 99.1,179 C104.2,183.4 110.7,185.9 117.4,185.9 C133,185.9 145.7,172.9 145.7,157 C145.7,156.3 145.7,155.6 145.6,155 L145.7,155 C162.4,155 176,141.1 176,124 C176.1,112.4 169.7,101.8 159.5,96.4 Z" id="Path"></path>
            </g>
            <path d="M323.1,576.2 C336.7,560.7 335.1,537.1 319.6,523.6 C318.3,522.5 316.9,521.4 315.4,520.4 C317.7,516.8 318.9,512.7 318.9,508.4 C319.2,496.7 309.9,486.9 298.2,486.6 C288.4,486.4 279.7,492.8 277.1,502.3 C271.5,492.6 261.1,486.6 249.9,486.6 C232.4,486.6 218.1,501.1 218.1,519.1 C218.1,522.9 218.8,526.7 220.1,530.3 C219.5,530.3 218.8,530.2 218.1,530.2 C204,530.2 192.6,541.9 192.6,556.3 C192.6,557.2 192.6,558.1 192.7,558.9 C181,564.2 173.5,575.8 173.5,588.7 C173.5,606.6 187.7,621.1 205.2,621.1 C207,621.1 208.9,620.9 210.7,620.6 C210.6,621.7 210.6,622.8 210.6,623.9 C210.6,644 226.5,660.2 246.1,660.2 C253.4,660.2 260.4,657.9 266.3,653.7 C271.1,657.9 277.2,660.2 283.5,660.2 C298.2,660.2 310,648 310,633 C310,632.3 310,631.7 309.9,631.1 L310,631.1 C325.7,631.1 338.4,618.1 338.4,602 C338.7,591.2 332.7,581.3 323.1,576.2 Z" id="_x37_8683fa5-7813-42ce-9e3f-16828d09ffb2" fill="#4DB6AC" fill-rule="nonzero"></path>
            <rect id="Rectangle" fill="url(#linearGradient-14)" fill-rule="nonzero" x="258.8" y="534.7" width="8.3" height="205.4"></rect>
            <rect id="Rectangle" fill="#795548" fill-rule="nonzero" x="261.2" y="537.6" width="4.1" height="202.5"></rect>
            <rect id="Rectangle" fill="#795548" fill-rule="nonzero" transform="translate(279.411970, 580.235040) rotate(-47.200574) translate(-279.411970, -580.235040) " x="254.313224" y="578.135145" width="50.1974912" height="4.1997901"></rect>
            <rect id="Rectangle" fill="#795548" fill-rule="nonzero" transform="translate(244.626190, 617.187620) rotate(-53.400547) translate(-244.626190, -617.187620) " x="242.576249" y="595.188255" width="4.09988167" height="43.9987301"></rect>
            <g id="_x39_72b0d41-b6e5-4c12-bd64-332f8d6d9bc4" transform="translate(261.000000, 519.000000)" fill="url(#linearGradient-16)" fill-rule="nonzero">
                <path d="M14.7,80.2 C9.1,74.3 6,66.4 6,58.3 C6.1,46.9 12.1,36.3 22,30.5 C19.8,27.4 18.7,23.6 18.7,19.8 C18.7,9.1 27.7,0.4 38.8,0.4 C47.6,0.3 55.5,6 58.1,14.4 C63.7,5.6 73.4,0.3 83.8,0.4 C100.4,0.4 113.8,13.4 113.8,29.4 C113.8,32.8 113.2,36.2 112,39.4 C112.6,39.4 113.2,39.3 113.8,39.3 C127.1,39.3 137.9,49.7 137.9,62.5 C137.9,63.3 137.9,64.1 137.8,64.8 C148.6,69.2 155.8,79.6 155.9,91.3 C155.9,107.3 142.5,120.2 126,120.2 C124.3,120.2 122.5,120.1 120.8,119.8 C120.9,120.8 120.9,121.7 120.9,122.7 C120.9,140.6 105.9,155.1 87.4,155.1 C80.6,155.1 74,153.1 68.3,149.3 C63.7,153 58,155.1 52.1,155 C38.3,155 27.1,144.2 27.1,130.8 C27.1,130.2 27.1,129.6 27.2,129.1 L27,129.1 C12.2,129.1 0.2,117.5 0.2,103.2 C0.2,93.4 5.8,84.5 14.7,80.2 Z" id="Path"></path>
            </g>
            <path d="M278.4,599.1 C273.1,593.4 270.1,585.9 270.1,578.1 C270.2,567.2 276,557.1 285.4,551.5 C283.3,548.5 282.2,544.9 282.2,541.3 C282.2,531 290.8,522.7 301.5,522.7 C309.9,522.6 317.4,528 320,536.1 C325.3,527.7 334.6,522.6 344.6,522.7 C360.4,522.7 373.3,535.1 373.3,550.4 C373.3,553.7 372.7,556.9 371.5,560 C372.1,560 372.7,559.9 373.3,559.9 C386,559.9 396.3,569.9 396.3,582.2 C396.3,583 396.3,583.7 396.2,584.4 C406.6,588.6 413.4,598.6 413.5,609.8 C413.5,625.1 400.7,637.4 384.9,637.4 C383.2,637.4 381.6,637.3 379.9,637 C380,637.9 380,638.8 380,639.8 C380,656.9 365.6,670.8 347.9,670.8 C341.4,670.8 335,668.9 329.6,665.3 C325.2,668.9 319.7,670.8 314.1,670.8 C300.9,670.8 290.1,660.4 290.1,647.6 C290.1,647.1 290.1,646.5 290.2,646 L290,646 C275.8,646 264.3,634.9 264.3,621.2 C264.4,611.7 269.9,603.2 278.4,599.1 Z" id="b9cc99c1-468f-47c5-9d53-f370b6656f3a" fill="#5ACCBE" fill-rule="nonzero"></path>
            <path d="M332.8,566.7 L332.8,739" id="_x37_a451371-7fbb-4ddd-b5af-3dcf3eef4c8e"></path>
            <rect id="Rectangle" fill="url(#linearGradient-17)" fill-rule="nonzero" x="328" y="566.7" width="9.4" height="172.4"></rect>
            <rect id="Rectangle" fill="#795548" fill-rule="nonzero" x="330.2" y="566.7" width="5.2" height="172.4"></rect>
            <path d="M333.3,618.3 L302.6,586.9" id="f8907fab-e671-432b-8785-92f5b3540283"></path>
            <rect id="Rectangle" fill="#795548" fill-rule="nonzero" transform="translate(317.965000, 602.569960) rotate(-44.428722) translate(-317.965000, -602.569960) " x="315.36508" y="580.570633" width="5.1998409" height="43.9986538"></rect>
            <path d="M333.3,645.3 L365.2,622.9" id="_x38_3bfd14d-9fcf-4efd-aa6d-a51063723d88"></path>
            <rect id="Rectangle" fill="#795548" fill-rule="nonzero" transform="translate(349.320720, 634.134640) rotate(-35.056794) translate(-349.320720, -634.134640) " x="329.820317" y="631.534586" width="39.0008057" height="5.20010743"></rect>
            <polyline id="Path" stroke="#37474F" points="78.2 503.8 145.8 574 222.2 503.8"></polyline>
            <rect id="Rectangle" fill="url(#linearGradient-18)" fill-rule="nonzero" x="11.6" y="471.2" width="45.3" height="271"></rect>
            <rect id="Rectangle" fill="#F5F5F5" fill-rule="nonzero" x="15.1" y="473.5" width="38.2" height="264.9"></rect>
            <rect id="Rectangle" fill="url(#linearGradient-19)" fill-rule="nonzero" x="2.93087935" y="483" width="267" height="43"></rect>
            <rect id="Rectangle" fill="#F5F5F5" fill-rule="nonzero" x="3.6" y="485.1" width="264.9" height="38.2"></rect>
            <circle id="Oval" fill="url(#linearGradient-20)" fill-rule="nonzero" cx="34.7" cy="503.8" r="8"></circle>
            <circle id="Oval" fill="url(#linearGradient-21)" fill-rule="nonzero" cx="248.9" cy="503.8" r="8"></circle>
            <circle id="Oval" fill="#E6E6E6" fill-rule="nonzero" cx="34.7" cy="503.8" r="6.2"></circle>
            <circle id="Oval" fill="#E6E6E6" fill-rule="nonzero" cx="248.9" cy="503.8" r="6.2"></circle>
            <rect id="Rectangle" fill="url(#linearGradient-22)" fill-rule="nonzero" x="64.9" y="569.5" width="171.6" height="116.4"></rect>
            <rect id="Rectangle" fill="#262262" fill-rule="nonzero" x="66.2" y="570.9" width="168.9" height="112"></rect>
            <rect id="Rectangle" fill="#FFFFFF" fill-rule="nonzero" x="85.8" y="588.6" width="119.1" height="10.7"></rect>
            <rect id="Rectangle" fill="#FFFFFF" fill-rule="nonzero" x="107.6" y="609.5" width="84.4" height="10.7"></rect>
            <rect id="Rectangle" fill="#FFFFFF" fill-rule="nonzero" x="96.9" y="630.4" width="102.2" height="10.7"></rect>
            <rect id="Rectangle" fill="#FFFFFF" fill-rule="nonzero" x="87.1" y="651.3" width="119.1" height="10.7"></rect>
            <g id="_x36_3650477-b8a1-43d8-a2c1-7cd9fae56092" transform="translate(709.000000, 521.000000)" fill="url(#linearGradient-24)" fill-rule="nonzero">
                <path d="M15.7,87.5 C2.6,72.5 4.1,49.7 19.2,36.5 C20.5,35.4 21.8,34.4 23.2,33.5 C21,30 19.8,26 19.8,21.9 C19.5,10.5 28.5,1.1 39.8,0.8 C49.3,0.5 57.8,6.8 60.2,16 C65.7,6.6 75.7,0.8 86.6,0.8 C103.6,0.8 117.4,14.9 117.4,32.3 C117.4,36 116.8,39.7 115.5,43.2 C116.1,43.2 116.7,43.1 117.4,43.1 C131.1,43.1 142.1,54.4 142.1,68.4 C142.1,69.3 142.1,70.1 142,70.9 C153.3,76 160.6,87.3 160.6,99.7 C160.6,117 146.9,131.1 129.9,131.1 C128.1,131.1 126.3,130.9 124.6,130.6 C124.7,131.6 124.8,132.7 124.8,133.8 C124.8,153.3 109.4,169 90.4,169 C83.4,169 76.5,166.8 70.8,162.7 C66.2,166.7 60.3,169 54.1,169 C39.9,169 28.4,157.2 28.4,142.7 C28.4,142.1 28.4,141.5 28.5,140.8 L28.4,140.8 C13.2,140.8 0.9,128.2 0.9,112.6 C0.7,102 6.5,92.4 15.7,87.5 Z" id="Path"></path>
            </g>
            <path d="M728.7,608.3 C716.4,594.2 717.8,572.8 731.9,560.5 C733.1,559.5 734.4,558.5 735.7,557.6 C733.6,554.4 732.5,550.6 732.5,546.7 C732.2,536 740.7,527.1 751.3,526.9 C760.2,526.7 768.1,532.6 770.5,541.2 C775.6,532.4 785,527 795.2,526.9 C811.2,526.9 824.1,540.1 824.1,556.4 C824.1,559.9 823.5,563.3 822.3,566.6 C822.9,566.6 823.5,566.5 824.1,566.5 C836.9,566.5 847.3,577.1 847.3,590.2 C847.3,591 847.3,591.8 847.2,592.6 C857.9,597.4 864.7,608 864.6,619.7 C864.6,636 851.7,649.2 835.8,649.2 C834.1,649.2 832.5,649 830.8,648.7 C830.9,649.7 830.9,650.7 830.9,651.7 C830.9,669.9 816.4,684.7 798.6,684.7 C792,684.7 785.6,682.6 780.2,678.8 C775.9,682.6 770.3,684.7 764.6,684.7 C751.3,684.7 740.5,673.7 740.5,660 C740.5,659.4 740.5,658.8 740.6,658.2 L740.5,658.2 C726.2,658.2 714.7,646.4 714.7,631.8 C714.6,622 720,612.9 728.7,608.3 Z" id="d9fb3d72-af8e-4f1d-b977-47710d21b422" fill="#4DB6AC" fill-rule="nonzero"></path>
            <rect id="Rectangle" fill="url(#linearGradient-25)" fill-rule="nonzero" x="779.7" y="570.6" width="7.5" height="186.7"></rect>
            <rect id="Rectangle" fill="#795548" fill-rule="nonzero" x="781.3" y="573.2" width="3.8" height="184.1"></rect>
            <rect id="Rectangle" fill="#795548" fill-rule="nonzero" transform="translate(768.465690, 612.138270) rotate(-42.799426) translate(-768.465690, -612.138270) " x="766.565785" y="589.339409" width="3.79981009" height="45.5977211"></rect>
            <rect id="Rectangle" fill="#795548" fill-rule="nonzero" transform="translate(800.090900, 645.597860) rotate(-36.599453) translate(-800.090900, -645.597860) " x="780.091477" y="643.697915" width="39.9988456" height="3.79989033"></rect>
            <g id="ea5e6e86-8f22-4c0d-a253-147f504d396e" transform="translate(643.000000, 556.000000)" fill="url(#linearGradient-27)" fill-rule="nonzero">
                <path d="M128.9,73.2 C134,67.8 136.8,60.7 136.8,53.3 C136.8,42.9 131.2,33.3 122.3,28 C124.3,25.1 125.3,21.7 125.3,18.3 C125.3,8.5 117.1,0.6 107,0.6 C99,0.5 91.9,5.7 89.5,13.3 C84.4,5.3 75.6,0.5 66.2,0.6 C51.1,0.6 38.9,12.4 38.9,26.9 C38.9,30 39.5,33.1 40.6,36 C40.1,36 39.5,35.9 38.9,35.9 C26.8,35.9 17,45.4 17,57 C17,57.7 17,58.4 17.1,59.1 C7.2,63.1 0.8,72.6 0.7,83.2 C0.7,97.7 12.9,109.4 27.9,109.4 C29.5,109.4 31,109.3 32.6,109 C32.5,109.9 32.5,110.8 32.5,111.7 C32.5,128 46.2,141.2 63,141.2 C69.2,141.2 75.2,139.4 80.4,136 C84.6,139.4 89.8,141.3 95.2,141.3 C107.8,141.3 118,131.5 118,119.3 C118,118.8 118,118.3 117.9,117.7 L118,117.7 C131.5,117.7 142.4,107.2 142.4,94.1 C142.1,85.3 136.9,77.1 128.9,73.2 Z" id="Path"></path>
            </g>
            <path d="M769.4,629.1 C774.3,623.9 777,617.1 777,610 C776.9,600.1 771.7,590.9 763.1,585.8 C765,583.1 766,579.8 766,576.5 C766,567.2 758.2,559.6 748.5,559.6 C740.8,559.5 734,564.5 731.7,571.8 C726.8,564.2 718.4,559.6 709.4,559.6 C695,559.6 683.3,570.9 683.3,584.8 C683.3,587.8 683.8,590.7 684.9,593.5 C684.4,593.5 683.8,593.4 683.3,593.4 C671.7,593.4 662.4,602.5 662.4,613.6 C662.4,614.3 662.4,614.9 662.5,615.6 C653.1,619.4 646.9,628.5 646.8,638.7 C646.8,652.6 658.4,663.8 672.8,663.8 C674.3,663.8 675.8,663.7 677.3,663.4 C677.2,664.2 677.2,665.1 677.2,665.9 C677.2,681.5 690.3,694.1 706.4,694.1 C712.3,694.1 718.1,692.4 723,689.1 C727,692.4 732,694.1 737.1,694.1 C749.1,694.1 758.9,684.7 758.9,673 C758.9,672.5 758.9,672 758.8,671.5 L758.9,671.5 C771.8,671.5 782.2,661.4 782.2,648.9 C782.1,640.6 777.1,632.8 769.4,629.1 Z" id="_x37_9f8c247-f548-4c1c-8f49-a16aaa215201" fill="#5ACCBE" fill-rule="nonzero"></path>
            <path d="M719.9,599.7 L719.9,756.4" id="_x38_6901f0c-b7b5-4ba8-942f-e54f281a8bcd"></path>
            <rect id="Rectangle" fill="url(#linearGradient-28)" fill-rule="nonzero" x="715.8" y="599.7" width="8.5" height="156.7"></rect>
            <rect id="Rectangle" fill="#795548" fill-rule="nonzero" x="717.6" y="599.7" width="4.7" height="156.7"></rect>
            <path d="M719.5,646.6 L747.4,618" id="_x36_3650f42-d3c3-489e-a647-f3904e46b7bd"></path>
            <rect id="Rectangle" fill="#795548" fill-rule="nonzero" transform="translate(733.477435, 632.283550) rotate(-45.571278) translate(-733.477435, -632.283550) " x="713.478047" y="629.933622" width="39.9987762" height="4.6998562"></rect>
            <path d="M719.5,671.1 L690.4,650.8" id="_x32_5077b7e-584e-4c29-8c8c-a60ca5d6c1ae"></path>
            <rect id="Rectangle" fill="#795548" fill-rule="nonzero" transform="translate(704.915019, 660.864890) rotate(-54.943206) translate(-704.915019, -660.864890) " x="702.564971" y="643.164524" width="4.7000971" height="35.4007314"></rect>
        </g>
    </g>
</svg>